<svg width="51" height="48" viewBox="0 0 51 48" fill="none" xmlns="http://www.w3.org/2000/svg">
<line x1="4" y1="42" x2="48" y2="42" stroke="black" stroke-width="4" stroke-linecap="round" stroke-linejoin="round"/>
<path d="M5.04254 19.7147L5.82618 21.5547L5.04254 19.7147ZM46.5269 11.3756L47.2867 9.5256L46.5269 11.3756ZM47.3825 16.391L46.0523 14.8975L47.3825 16.391ZM40.3332 10.1196L41.1168 11.9597L40.3332 10.1196ZM43.4201 10.0997L42.6603 11.9498L43.4201 10.0997ZM27.7973 14.4164L28.6125 12.5901L27.7973 14.4164ZM7.5426 8.86705L8.32626 10.7071L7.5426 8.86705ZM18.3599 21.65L17.5759 19.81L18.3599 21.65ZM18.6415 20.2098L17.2814 21.6761L18.6415 20.2098ZM12.7475 22.3978L11.5388 23.9912L12.7475 22.3978ZM3.16647 21.972L4.62788 20.6067L3.16647 21.972ZM3.50535 20.3693L2.72171 18.5292L3.50535 20.3693ZM11.1486 29.662L10.7797 31.6277L11.1486 29.662ZM9.50983 28.7615L10.9712 27.3961L9.50983 28.7615ZM16.3765 30.6431L16.0076 32.6088L16.3765 30.6431ZM18.1053 30.4547L18.889 32.2948L18.1053 30.4547ZM44.4402 19.0115L43.11 17.5181L44.4402 19.0115ZM43.3471 19.7047L44.1308 21.5448L43.3471 19.7047ZM16.7454 28.6775L11.5175 27.6963L10.7797 31.6277L16.0076 32.6088L16.7454 28.6775ZM16.5205 24.6076L19.1438 23.4899L17.5759 19.81L14.9527 20.9277L16.5205 24.6076ZM12.7216 9.87728L26.9821 16.2427L28.6125 12.5901L14.352 6.22464L12.7216 9.87728ZM30.9792 16.2771L41.1168 11.9597L39.5495 8.27956L29.4119 12.597L30.9792 16.2771ZM42.6603 11.9498L45.7671 13.2257L47.2867 9.5256L44.1799 8.24965L42.6603 11.9498ZM46.0523 14.8975L43.11 17.5181L45.7704 20.505L48.7127 17.8845L46.0523 14.8975ZM42.5635 17.8646L17.3217 28.6147L18.889 32.2948L44.1308 21.5448L42.5635 17.8646ZM10.9712 27.3961L4.62788 20.6067L1.70506 23.3374L8.04842 30.1269L10.9712 27.3961ZM20.0015 18.7434C17.509 16.4316 11.2331 11.2193 8.56687 9.01635L6.01906 12.1C8.72687 14.3373 14.8938 19.4616 17.2814 21.6761L20.0015 18.7434ZM8.32626 10.7071L10.3233 9.85664L8.75595 6.17648L6.75895 7.02697L8.32626 10.7071ZM4.289 22.2094L5.82618 21.5547L4.25889 17.8746L2.72171 18.5292L4.289 22.2094ZM8.81479 21.9248L11.5388 23.9912L13.9563 20.8044L11.2323 18.738L8.81479 21.9248ZM5.82618 21.5547C6.81662 21.1329 7.95713 21.2741 8.81479 21.9248L11.2323 18.738C9.2311 17.2199 6.56991 16.8904 4.25889 17.8746L5.82618 21.5547ZM45.7671 13.2257C46.4506 13.5064 46.6041 14.406 46.0523 14.8975L48.7127 17.8845C51.4717 15.4271 50.7044 10.9292 47.2867 9.5256L45.7671 13.2257ZM41.1168 11.9597C41.6093 11.75 42.1652 11.7464 42.6603 11.9498L44.1799 8.24965C42.6946 7.63964 41.0268 7.65042 39.5495 8.27956L41.1168 11.9597ZM26.9821 16.2427C28.2517 16.8094 29.7 16.8219 30.9792 16.2771L29.4119 12.597C29.1561 12.7059 28.8664 12.7034 28.6125 12.5901L26.9821 16.2427ZM14.352 6.22464C12.5745 5.43122 10.5469 5.41377 8.75595 6.17648L10.3233 9.85664C11.0908 9.52976 11.9598 9.53724 12.7216 9.87728L14.352 6.22464ZM8.56687 9.01635C9.15698 9.50391 8.99875 10.4207 8.32626 10.7071L6.75895 7.02697C4.70494 7.90174 4.27138 10.6559 6.01906 12.1L8.56687 9.01635ZM19.1438 23.4899C20.9601 22.7161 21.6446 20.2674 20.0015 18.7434L17.2814 21.6761C17.0113 21.4256 16.8664 21.0147 16.9495 20.6043C17.0292 20.2105 17.2928 19.9306 17.5759 19.81L19.1438 23.4899ZM14.9527 20.9277C14.6225 21.0684 14.2422 21.0213 13.9563 20.8044L11.5388 23.9912C12.9684 25.0757 14.8697 25.311 16.5205 24.6076L14.9527 20.9277ZM4.62788 20.6067C5.10167 21.1138 4.9275 21.9375 4.289 22.2094L2.72171 18.5292C0.806218 19.345 0.283717 21.8161 1.70506 23.3374L4.62788 20.6067ZM11.5175 27.6963C11.3081 27.657 11.1167 27.5518 10.9712 27.3961L8.04842 30.1269C8.77571 30.9054 9.73262 31.4312 10.7797 31.6277L11.5175 27.6963ZM16.0076 32.6088C16.978 32.7909 17.9806 32.6817 18.889 32.2948L17.3217 28.6147C17.14 28.692 16.9395 28.7139 16.7454 28.6775L16.0076 32.6088ZM43.11 17.5181C42.9479 17.6625 42.7632 17.7795 42.5635 17.8646L44.1308 21.5448C44.7301 21.2895 45.284 20.9383 45.7704 20.505L43.11 17.5181Z" fill="black"/>
</svg>
